<?xml version="1.0" standalone="no"?>
<!DOCTYPE svg PUBLIC "-//W3C//DTD SVG 20010904//EN"
 "http://www.w3.org/TR/2001/REC-SVG-20010904/DTD/svg10.dtd">
<svg version="1.0" xmlns="http://www.w3.org/2000/svg"
 width="500.000000pt" height="500.000000pt" viewBox="0 0 500.000000 500.000000"
 preserveAspectRatio="xMidYMid meet">
<metadata>
Created by potrace 1.14, written by Peter Selinger 2001-2017
</metadata>
<g transform="translate(0.000000,500.000000) scale(0.100000,-0.100000)"
fill="#000000" stroke="none">
<path d="M2206 3373 c-11 -11 -6 -23 9 -23 8 0 15 4 15 9 0 13 -16 22 -24 14z"/>
<path d="M2219 3298 c0 -2 -2 -19 -5 -38 -7 -57 -63 -262 -75 -277 -10 -11
-15 -11 -30 3 -11 10 -19 25 -19 36 0 10 -6 18 -14 18 -12 0 -13 -11 -9 -54 3
-32 1 -56 -5 -60 -14 -8 -69 39 -89 78 -15 30 -108 171 -138 210 -20 26 -27
17 -15 -20 53 -163 60 -193 65 -319 3 -71 11 -148 16 -169 10 -39 9 -48 -22
-108 -20 -40 -11 -56 39 -67 201 -45 539 -58 959 -36 29 1 50 -1 47 -6 -13
-21 160 1 182 23 15 14 14 18 -1 42 -14 21 -16 39 -11 94 3 37 6 77 6 90 0 27
61 215 84 260 9 17 23 37 31 46 16 16 13 36 -7 36 -5 0 -8 -7 -5 -15 3 -7 -3
-24 -13 -37 -27 -32 -27 -5 0 62 11 28 20 53 20 56 0 3 -16 -7 -35 -22 -32
-24 -145 -169 -170 -218 -10 -19 -55 -28 -75 -16 -6 4 -6 27 -1 60 10 64 6 74
-18 41 -10 -13 -23 -21 -29 -17 -12 7 -32 114 -41 221 -4 59 -10 80 -20 80 -8
0 -15 -8 -17 -18 -1 -9 -16 -33 -33 -52 -16 -19 -55 -72 -85 -119 -80 -120
-157 -184 -191 -156 -13 11 -12 16 7 42 19 27 19 30 3 27 -10 -2 -19 -12 -21
-22 -4 -28 -12 -32 -39 -17 -31 16 -71 80 -145 228 -30 61 -61 111 -67 111 -7
1 -13 0 -14 -1z m-337 -185 c14 -21 46 -71 73 -111 48 -73 87 -112 111 -112 7
0 26 11 42 25 17 14 33 25 36 25 3 0 6 -25 6 -55 0 -37 -4 -55 -12 -55 -8 -1
-6 -6 5 -14 16 -12 9 -15 -55 -20 -40 -4 -91 -9 -113 -11 -45 -5 -32 2 35 21
l45 12 -60 -2 c-55 -1 -60 1 -63 22 -2 12 -10 22 -18 22 -16 0 -19 21 -5 35
12 13 -12 136 -38 198 -31 71 -27 77 11 20z m424 -115 c3 -10 -3 -39 -13 -64
-17 -43 -19 -45 -51 -39 -20 4 -39 1 -48 -6 -11 -9 -15 -8 -20 5 -12 31 4 48
40 44 32 -4 33 -3 23 19 -8 18 -6 32 7 59 16 35 17 36 36 19 11 -10 22 -26 26
-37z m484 -19 c0 -9 -10 -35 -23 -58 l-24 -41 -10 45 c-9 38 -7 49 10 77 18
31 20 31 33 13 8 -10 14 -27 14 -36z m-297 -74 c35 -7 38 -10 35 -39 l-3 -31
-70 -3 c-100 -4 -118 2 -110 37 7 32 -17 50 -41 30 -26 -22 -15 9 16 44 17 19
30 45 30 58 0 19 7 15 53 -33 39 -43 61 -58 90 -63z m-401 43 c-8 -8 -9 -4 -5
13 4 13 8 18 11 10 2 -7 -1 -18 -6 -23z m626 -43 c11 -23 10 -24 -9 -12 -18
10 -23 9 -40 -12 l-19 -23 0 30 c0 46 49 59 68 17z m120 -2 c5 -10 7 -24 5
-31 -4 -9 1 -10 22 -2 20 7 34 6 57 -6 26 -14 29 -20 26 -50 -2 -19 0 -34 6
-34 5 0 7 -3 4 -6 -3 -3 -44 0 -90 7 -73 12 -79 14 -48 20 21 4 26 7 13 8 -19
1 -21 5 -16 37 5 30 3 36 -15 41 -12 3 -19 10 -15 19 7 20 41 17 51 -3z m249
-15 c-3 -8 -6 -5 -6 6 -1 11 2 17 5 13 3 -3 4 -12 1 -19z m-27 -34 c0 -8 -5
-12 -10 -9 -6 4 -8 11 -5 16 9 14 15 11 15 -7z m40 -24 c0 -5 -2 -10 -4 -10
-3 0 -8 5 -11 10 -3 6 -1 10 4 10 6 0 11 -4 11 -10z m-622 -17 c-15 -2 -42 -2
-60 0 -18 2 -6 4 27 4 33 0 48 -2 33 -4z m-328 -53 c0 -21 5 -30 16 -30 15 0
15 -2 -1 -26 -9 -14 -15 -34 -12 -44 4 -15 -7 -18 -97 -23 -55 -3 -103 -4
-104 -2 -2 2 0 10 4 17 14 22 13 72 -3 90 -19 22 -7 28 75 38 122 14 122 14
122 -20z m373 6 c-1 -11 6 -26 15 -34 13 -10 14 -15 5 -18 -18 -8 -16 -24 2
-24 8 0 15 -5 15 -11 0 -6 -9 -9 -20 -6 -13 3 -20 0 -20 -9 0 -11 -19 -14 -84
-14 l-85 0 -15 31 c-11 22 -13 36 -6 49 6 10 10 28 10 40 0 20 4 21 93 18 84
-3 92 -5 90 -22z m418 -17 c11 -5 15 -21 15 -49 -1 -35 1 -40 16 -37 17 5 17
4 1 -25 l-18 -30 -95 7 c-52 4 -97 9 -99 11 -2 2 2 10 9 19 7 8 10 22 6 30 -3
8 -1 25 3 38 5 12 12 30 15 40 5 17 13 18 69 12 34 -4 69 -11 78 -16z m-1011
-55 c0 -8 -5 -12 -10 -9 -6 4 -8 11 -5 16 9 14 15 11 15 -7z m205 -84 c-3 -5
7 -12 22 -16 15 -3 33 -7 38 -9 6 -2 -57 -4 -139 -4 -94 -1 -146 3 -140 8 22
23 232 43 219 21z m355 -10 c18 -12 -27 -12 -110 0 l-55 7 75 1 c41 1 82 -3
90 -8z m469 -21 c20 -13 -142 -2 -173 12 -14 6 8 8 68 4 48 -3 96 -10 105 -16z
m-391 -46 c-15 -2 -42 -2 -60 0 -18 2 -6 4 27 4 33 0 48 -2 33 -4z m303 -5
c-43 -7 -70 -7 -85 0 -16 8 -1 11 64 10 l85 -1 -64 -9z m-616 -8 c27 -7 27 -8
5 -8 -14 0 -38 4 -55 8 -27 7 -27 8 -5 8 14 0 39 -4 55 -8z"/>
<path d="M2878 2793 c6 -2 18 -2 25 0 6 3 1 5 -13 5 -14 0 -19 -2 -12 -5z"/>
<path d="M3200 3175 c0 -8 6 -15 14 -15 22 0 28 17 10 24 -22 9 -24 8 -24 -9z"/>
<path d="M1785 3121 c-6 -11 9 -23 19 -14 9 9 7 23 -3 23 -6 0 -12 -4 -16 -9z"/>
<path d="M1848 2998 c12 -30 18 -37 20 -24 4 20 -16 66 -29 66 -4 0 0 -19 9
-42z"/>
<path d="M2175 2000 c0 -291 3 -410 11 -410 6 0 39 43 73 95 65 98 159 195
191 195 10 0 20 -9 23 -20 7 -29 34 -35 57 -15 17 15 20 16 20 3 0 -20 26 -30
48 -19 9 4 23 6 30 4 7 -3 19 0 26 6 10 8 17 7 26 -4 17 -21 43 -19 65 5 17
19 20 19 36 4 14 -12 22 -13 39 -4 18 10 24 8 35 -6 11 -15 17 -16 38 -7 14 7
33 24 43 38 23 36 34 31 34 -15 0 -56 24 -64 60 -21 23 27 28 29 34 15 5 -12
15 -15 41 -12 29 3 35 1 35 -15 0 -11 -14 -35 -31 -55 -87 -99 -92 -232 -8
-232 45 0 68 58 69 170 1 93 8 114 58 155 44 36 33 45 -12 10 l-36 -27 0 45
c0 47 -16 70 -31 46 -5 -8 -9 -23 -9 -35 0 -23 -32 -58 -43 -47 -4 3 -7 24 -7
46 0 32 -3 38 -16 33 -9 -3 -18 -6 -20 -6 -2 0 -4 -11 -4 -24 0 -26 -37 -79
-50 -71 -5 3 -6 21 -3 40 5 32 4 35 -20 35 -21 0 -24 4 -20 21 4 16 2 20 -8
17 -8 -3 -14 -17 -14 -33 -1 -28 -39 -70 -56 -59 -5 3 -9 27 -9 55 0 59 -15
64 -30 10 -19 -72 -50 -73 -50 0 0 37 -18 38 -26 2 -15 -72 -42 -92 -67 -52
-8 13 -5 24 12 45 14 18 18 30 11 32 -6 2 -18 -4 -26 -14 -13 -18 -15 -18 -25
-1 -15 25 -32 21 -26 -5 5 -16 -1 -31 -20 -50 -15 -16 -30 -28 -35 -28 -4 0
-8 25 -8 55 0 70 -22 75 -40 10 -7 -25 -17 -48 -22 -52 -15 -9 -28 17 -28 57
0 35 -1 35 -18 14 -9 -12 -27 -25 -39 -29 -42 -12 -118 -81 -168 -153 -27 -39
-52 -71 -55 -72 -3 0 -5 154 -5 343 0 320 -5 397 -23 397 -4 0 -7 -184 -7
-410z m475 -134 c0 -2 -8 -10 -17 -17 -16 -13 -17 -12 -4 4 13 16 21 21 21 13z
m481 -218 c-12 -92 -27 -120 -48 -92 -24 34 -11 109 30 168 27 39 31 23 18
-76z"/>
<path d="M1097 2375 c-82 -23 -156 -65 -224 -129 -79 -73 -123 -156 -83 -156
5 0 18 19 28 43 38 85 152 181 261 218 117 41 278 16 336 -52 31 -38 34 -103
6 -158 -29 -56 -120 -134 -235 -201 l-101 -60 -3 140 c-2 115 -5 140 -17 140
-13 0 -15 -24 -15 -147 0 -138 -1 -148 -22 -171 l-23 -24 23 -15 c21 -15 22
-21 22 -159 0 -121 2 -144 15 -144 13 0 15 22 15 140 0 105 3 140 13 140 6 0
77 -14 157 -30 142 -29 220 -38 175 -21 -11 4 -93 23 -182 41 -153 31 -163 35
-163 56 0 18 16 31 78 65 245 134 346 251 312 363 -7 22 -25 52 -42 68 -62 58
-220 83 -331 53z"/>
<path d="M3606 2349 c-92 -49 -188 -190 -237 -349 -32 -103 -33 -247 -3 -305
31 -59 75 -85 143 -85 97 0 206 68 272 170 29 45 34 48 64 43 26 -4 36 0 52
20 19 24 20 24 31 6 18 -28 50 -23 82 11 15 17 31 30 34 30 3 0 6 -18 6 -40 0
-51 21 -62 56 -30 19 18 24 20 24 8 0 -9 7 -18 15 -22 26 -9 45 5 45 33 0 19
8 32 25 41 32 17 26 24 -8 9 -21 -9 -30 -9 -42 1 -20 17 -19 37 3 44 9 2 4 4
-13 3 -27 -2 -30 -5 -27 -33 2 -23 -4 -40 -22 -60 l-25 -29 -1 43 c0 35 -3 42
-20 42 -14 0 -20 7 -20 21 0 12 -5 19 -12 16 -7 -2 -13 -16 -13 -30 -1 -33
-28 -62 -49 -54 -11 4 -16 19 -16 45 0 37 -1 38 -37 39 -52 2 -75 -16 -108
-82 -35 -73 -125 -164 -194 -198 -99 -49 -177 -32 -218 46 -40 76 -11 281 58
420 66 133 169 231 234 225 29 -3 30 -5 29 -53 0 -32 -12 -79 -32 -128 -37
-91 -36 -87 -18 -87 17 0 61 102 77 179 11 52 11 62 -4 85 -22 33 -74 35 -131
5z m304 -443 c0 -16 -38 -66 -51 -66 -15 0 -10 42 8 62 19 21 43 24 43 4z
m231 -49 c-10 -9 -11 -8 -5 6 3 10 9 15 12 12 3 -3 0 -11 -7 -18z m29 -27 c0
-5 -4 -10 -10 -10 -5 0 -10 5 -10 10 0 6 5 10 10 10 6 0 10 -4 10 -10z"/>
<path d="M1372 1938 c-37 -18 -46 -81 -14 -105 24 -20 63 -15 111 12 l44 25
15 -21 c12 -17 22 -20 48 -16 46 8 44 -9 -6 -75 -74 -97 -86 -209 -24 -224 59
-15 84 31 92 169 5 90 8 103 32 130 l27 30 21 -21 c12 -12 33 -22 47 -22 28 0
79 23 108 48 12 11 21 12 28 5 7 -7 5 -14 -6 -23 -20 -17 -19 -27 6 -40 26
-14 49 3 49 35 0 12 10 30 23 39 22 16 22 16 0 6 -34 -16 -49 -12 -61 14 -9
21 -8 26 6 30 9 2 6 4 -8 3 -19 -2 -25 -7 -24 -25 1 -18 -10 -29 -48 -48 -62
-32 -92 -29 -96 9 -3 23 0 27 20 27 13 0 32 6 42 13 16 12 16 14 2 26 -17 15
-60 8 -75 -12 -46 -57 -74 -87 -82 -87 -5 0 -9 23 -9 51 0 59 -19 64 -33 8 -5
-19 -15 -41 -23 -49 -13 -13 -16 -13 -24 0 -6 8 -9 28 -8 44 4 37 -18 46 -33
13 -12 -28 -96 -71 -125 -65 -12 2 -20 13 -22 31 -3 22 1 27 18 27 12 0 30 5
41 11 16 8 18 13 8 25 -13 16 -35 17 -67 2z m45 -14 c-3 -3 -12 -4 -19 -1 -8
3 -5 6 6 6 11 1 17 -2 13 -5z m370 0 c-3 -3 -12 -4 -19 -1 -8 3 -5 6 6 6 11 1
17 -2 13 -5z m130 -96 c-3 -8 -6 -5 -6 6 -1 11 2 17 5 13 3 -3 4 -12 1 -19z
m-320 -156 c-3 -43 -11 -92 -17 -108 l-12 -29 -19 24 c-10 13 -19 29 -19 37 0
36 52 154 68 154 3 0 2 -35 -1 -78z"/>
<path d="M770 1765 c0 -12 20 -15 120 -15 100 0 120 3 120 15 0 13 -20 15
-120 15 -100 0 -120 -2 -120 -15z"/>
<path d="M1380 1765 c0 -12 14 -15 70 -15 56 0 70 3 70 15 0 12 -14 15 -70 15
-56 0 -70 -3 -70 -15z"/>
<path d="M1670 1765 c0 -13 34 -15 250 -15 216 0 250 2 250 15 0 13 -34 15
-250 15 -216 0 -250 -2 -250 -15z"/>
<path d="M2360 1765 c0 -13 46 -15 350 -15 304 0 350 2 350 15 0 13 -46 15
-350 15 -304 0 -350 -2 -350 -15z"/>
<path d="M3210 1765 c0 -11 12 -15 50 -15 38 0 50 4 50 15 0 11 -12 15 -50 15
-38 0 -50 -4 -50 -15z"/>
<path d="M3820 1765 c0 -13 29 -15 205 -15 176 0 205 2 205 15 0 13 -29 15
-205 15 -176 0 -205 -2 -205 -15z"/>
</g>
</svg>
